<?xml version="1.0" encoding="UTF-8" standalone="no"?>
<!-- Created with Inkscape (http://www.inkscape.org/) -->

<svg
   xmlns:dc="http://purl.org/dc/elements/1.1/"
   xmlns:cc="http://creativecommons.org/ns#"
   xmlns:rdf="http://www.w3.org/1999/02/22-rdf-syntax-ns#"
   xmlns:svg="http://www.w3.org/2000/svg"
   xmlns="http://www.w3.org/2000/svg"
   xmlns:sodipodi="http://sodipodi.sourceforge.net/DTD/sodipodi-0.dtd"
   xmlns:inkscape="http://www.inkscape.org/namespaces/inkscape"
   width="940"
   height="1000"
   id="svg2"
   version="1.1"
   inkscape:version="0.48.2 r9819"
   sodipodi:docname="940.svg"
   enable-background="new"
   inkscape:export-filename="/home/mike/Catalyst/icb/ICB/root/static/images/logo.png"
   inkscape:export-xdpi="90"
   inkscape:export-ydpi="90">
  <defs
     id="defs4">
    <filter
       id="filter6154"
       inkscape:label="Texture with shadow (light)"
       width="1.5"
       height="1.5"
       x="-.25"
       y="-.25">
      <feTurbulence
         in="SourceGraphic"
         seed="0"
         id="feTurbulence6156"
         type="turbulence"
         baseFrequency="0.40000000000000002"
         numOctaves="10"
         result="result1" />
      <feDiffuseLighting
         result="result6"
         kernelUnitLength="0.01"
         diffuseConstant="0.20000000000000015"
         surfaceScale="2"
         lighting-color="rgb(254,254,254)"
         id="feDiffuseLighting6158">
        <feDistantLight
           elevation="20"
           azimuth="0"
           id="feDistantLight6160" />
      </feDiffuseLighting>
      <feColorMatrix
         type="luminanceToAlpha"
         result="result7"
         id="feColorMatrix6162" />
      <feComposite
         id="feComposite6164"
         in="result7"
         in2="SourceGraphic"
         operator="atop"
         k1="2.7755575615628914e-17"
         k2="2.7755575615628914e-17"
         k3="2.7755575615628914e-17"
         k4="2.7755575615628914e-17"
         result="fbSourceGraphic" />
      <feColorMatrix
         result="fbSourceGraphicAlpha"
         in="fbSourceGraphic"
         values="0 0 0 -1 0 0 0 0 -1 0 0 0 0 -1 0 0 0 0 1 0"
         id="feColorMatrix6314"
         stdDeviation="1" />
      <feGaussianBlur
         id="feGaussianBlur6316"
         in="fbSourceGraphicAlpha"
         stdDeviation="2"
         result="blur"
         dy="1" />
      <feColorMatrix
         id="feColorMatrix6318"
         result="bluralpha"
         type="matrix"
         values="1 0 0 0 0 0 1 0 0 0 0 0 1 0 0 0 0 0 0.75 0 " />
      <feOffset
         id="feOffset6320"
         in="bluralpha"
         dx="1"
         dy="2"
         result="offsetBlur" />
      <feMerge
         id="feMerge6322">
        <feMergeNode
           id="feMergeNode6324"
           in="offsetBlur" />
        <feMergeNode
           id="feMergeNode6326"
           in="fbSourceGraphic" />
      </feMerge>
    </filter>
    <filter
       y="-.25"
       x="-.25"
       height="1.5"
       width="1.5"
       inkscape:label="Texture with shadow (dark)"
       id="filter3186">
      <feTurbulence
         result="result1"
         numOctaves="10"
         baseFrequency="0.40000000000000002"
         type="turbulence"
         id="feTurbulence3188"
         seed="0"
         in="SourceGraphic" />
      <feDiffuseLighting
         id="feDiffuseLighting3190"
         lighting-color="rgb(254,254,254)"
         surfaceScale="2"
         diffuseConstant="0.20000000000000015"
         kernelUnitLength="0.01"
         result="result6">
        <feDistantLight
           id="feDistantLight3192"
           azimuth="0"
           elevation="20" />
      </feDiffuseLighting>
      <feColorMatrix
         id="feColorMatrix3194"
         result="result7"
         type="luminanceToAlpha" />
      <feComposite
         result="fbSourceGraphic"
         k4="2.7755575615628914e-17"
         k3="2.7755575615628914e-17"
         k2="2.7755575615628914e-17"
         k1="2.7755575615628914e-17"
         operator="atop"
         in2="SourceGraphic"
         in="result7"
         id="feComposite3196" />
      <feColorMatrix
         stdDeviation="1"
         id="feColorMatrix3198"
         values="0 0 0 -1 0 0 0 0 -1 0 0 0 0 -1 0 0 0 0 1 0"
         in="fbSourceGraphic"
         result="fbSourceGraphicAlpha" />
      <feGaussianBlur
         dy="2"
         result="blur"
         stdDeviation="1"
         in="fbSourceGraphicAlpha"
         id="feGaussianBlur3200" />
      <feColorMatrix
         values="1 0 0 0 0 0 1 0 0 0 0 0 1 0 0 0 0 0 0.95 0 "
         type="matrix"
         result="bluralpha"
         id="feColorMatrix3202" />
      <feOffset
         result="offsetBlur"
         dy="1"
         dx="1"
         in="bluralpha"
         id="feOffset3204" />
      <feMerge
         id="feMerge3206">
        <feMergeNode
           in="offsetBlur"
           id="feMergeNode3208" />
        <feMergeNode
           in="fbSourceGraphic"
           id="feMergeNode3210" />
      </feMerge>
    </filter>
    <filter
       id="filter4336"
       inkscape:label="Texture"
       width="1.5"
       height="1.5"
       x="-.25"
       y="-.25">
      <feTurbulence
         in="SourceGraphic"
         seed="0"
         id="feTurbulence4338"
         type="turbulence"
         baseFrequency="0.40000000000000002"
         numOctaves="10"
         result="result1" />
      <feDiffuseLighting
         result="result6"
         kernelUnitLength="0.01"
         diffuseConstant="0.20000000000000015"
         surfaceScale="2"
         lighting-color="rgb(254,254,254)"
         id="feDiffuseLighting4340">
        <feDistantLight
           elevation="20"
           azimuth="0"
           id="feDistantLight4342" />
      </feDiffuseLighting>
      <feColorMatrix
         type="luminanceToAlpha"
         result="result7"
         id="feColorMatrix4344" />
      <feComposite
         id="feComposite4346"
         in="result7"
         in2="SourceGraphic"
         operator="atop"
         k1="2.7755575615628914e-17"
         k2="2.7755575615628914e-17"
         k3="2.7755575615628914e-17"
         k4="2.7755575615628914e-17"
         result="fbSourceGraphic" />
    </filter>
  </defs>
  <sodipodi:namedview
     id="base"
     pagecolor="#ffffff"
     bordercolor="#666666"
     borderopacity="1.0"
     inkscape:pageopacity="0.0"
     inkscape:pageshadow="2"
     inkscape:zoom="1"
     inkscape:cx="470"
     inkscape:cy="921.875"
     inkscape:document-units="px"
     inkscape:current-layer="svg2"
     showgrid="true"
     inkscape:showpageshadow="false"
     inkscape:window-width="1920"
     inkscape:window-height="1055"
     inkscape:window-x="1600"
     inkscape:window-y="0"
     inkscape:window-maximized="1"
     inkscape:snap-bbox="true"
     inkscape:snap-page="false"
     showguides="false"
     inkscape:guide-bbox="true"
     inkscape:snap-grids="true"
     inkscape:snap-bbox-midpoints="true"
     inkscape:snap-object-midpoints="true"
     inkscape:bbox-nodes="true"
     inkscape:snap-bbox-edge-midpoints="true"
     inkscape:bbox-paths="true">
    <inkscape:grid
       type="xygrid"
       id="grid3132"
       empspacing="5"
       visible="true"
       enabled="true"
       snapvisiblegridlinesonly="true"
       spacingx="1px"
       spacingy="1px" />
    <sodipodi:guide
       orientation="1,0"
       position="80,0"
       id="guide3134" />
    <sodipodi:guide
       orientation="1,0"
       position="160,0"
       id="guide3136" />
    <sodipodi:guide
       orientation="1,0"
       position="240,0"
       id="guide3138" />
    <sodipodi:guide
       orientation="1,0"
       position="320,0"
       id="guide3140" />
    <sodipodi:guide
       orientation="1,0"
       position="400,0"
       id="guide3142" />
    <sodipodi:guide
       orientation="1,0"
       position="480,0"
       id="guide3144" />
    <sodipodi:guide
       orientation="1,0"
       position="560,0"
       id="guide3146" />
    <sodipodi:guide
       orientation="1,0"
       position="640,0"
       id="guide3148" />
    <sodipodi:guide
       orientation="1,0"
       position="720,0"
       id="guide3150" />
    <sodipodi:guide
       orientation="1,0"
       position="800,0"
       id="guide3152" />
    <sodipodi:guide
       orientation="1,0"
       position="880,0"
       id="guide3154" />
    <sodipodi:guide
       orientation="1,0"
       position="60,0"
       id="guide3158" />
    <sodipodi:guide
       orientation="1,0"
       position="140,0"
       id="guide3160" />
    <sodipodi:guide
       orientation="1,0"
       position="220,0"
       id="guide3162" />
    <sodipodi:guide
       orientation="1,0"
       position="300,0"
       id="guide3164" />
    <sodipodi:guide
       orientation="1,0"
       position="380,0"
       id="guide3166" />
    <sodipodi:guide
       orientation="1,0"
       position="460,0"
       id="guide3168" />
    <sodipodi:guide
       orientation="1,0"
       position="540,0"
       id="guide3170" />
    <sodipodi:guide
       orientation="1,0"
       position="620,0"
       id="guide3172" />
    <sodipodi:guide
       orientation="1,0"
       position="700,0"
       id="guide3174" />
    <sodipodi:guide
       orientation="1,0"
       position="780,0"
       id="guide3176" />
    <sodipodi:guide
       orientation="1,0"
       position="860,0"
       id="guide3178" />
  </sodipodi:namedview>
  <metadata
     id="metadata7">
    <rdf:RDF>
      <cc:Work
         rdf:about="">
        <dc:format>image/svg+xml</dc:format>
        <dc:type
           rdf:resource="http://purl.org/dc/dcmitype/StillImage" />
        <dc:title></dc:title>
      </cc:Work>
    </rdf:RDF>
  </metadata>
  <g
     inkscape:label="Grid"
     inkscape:groupmode="layer"
     id="layer1"
     transform="translate(0,-52.36218)"
     style="opacity:0.05;display:none"
     sodipodi:insensitive="true">
    <rect
       style="fill:#ff0000;fill-opacity:1;fill-rule:evenodd;stroke:none"
       id="rect3182"
       width="60"
       height="1000"
       x="0"
       y="0"
       transform="translate(0,52.36218)" />
    <rect
       y="0"
       x="80"
       height="1000"
       width="60"
       id="rect3952"
       style="fill:#ff0000;fill-opacity:1;fill-rule:evenodd;stroke:none"
       transform="translate(0,52.36218)" />
    <rect
       style="fill:#ff0000;fill-opacity:1;fill-rule:evenodd;stroke:none"
       id="rect3954"
       width="60"
       height="1000"
       x="160"
       y="0"
       transform="translate(0,52.36218)" />
    <rect
       y="0"
       x="240"
       height="1000"
       width="60"
       id="rect3956"
       style="fill:#ff0000;fill-opacity:1;fill-rule:evenodd;stroke:none"
       transform="translate(0,52.36218)" />
    <rect
       style="fill:#ff0000;fill-opacity:1;fill-rule:evenodd;stroke:none"
       id="rect3958"
       width="60"
       height="1000"
       x="320"
       y="0"
       transform="translate(0,52.36218)" />
    <rect
       y="0"
       x="400"
       height="1000"
       width="60"
       id="rect3960"
       style="fill:#ff0000;fill-opacity:1;fill-rule:evenodd;stroke:none"
       transform="translate(0,52.36218)" />
    <rect
       style="fill:#ff0000;fill-opacity:1;fill-rule:evenodd;stroke:none"
       id="rect3962"
       width="60"
       height="1000"
       x="480"
       y="0"
       transform="translate(0,52.36218)" />
    <rect
       y="0"
       x="560"
       height="1000"
       width="60"
       id="rect3964"
       style="fill:#ff0000;fill-opacity:1;fill-rule:evenodd;stroke:none"
       transform="translate(0,52.36218)" />
    <rect
       style="fill:#ff0000;fill-opacity:1;fill-rule:evenodd;stroke:none"
       id="rect3966"
       width="60"
       height="1000"
       x="640"
       y="0"
       transform="translate(0,52.36218)" />
    <rect
       y="0"
       x="720"
       height="1000"
       width="60"
       id="rect3968"
       style="fill:#ff0000;fill-opacity:1;fill-rule:evenodd;stroke:none"
       transform="translate(0,52.36218)" />
    <rect
       style="fill:#ff0000;fill-opacity:1;fill-rule:evenodd;stroke:none"
       id="rect3970"
       width="60"
       height="1000"
       x="800"
       y="0"
       transform="translate(0,52.36218)" />
    <rect
       y="0"
       x="880"
       height="1000"
       width="60"
       id="rect3972"
       style="fill:#ff0000;fill-opacity:1;fill-rule:evenodd;stroke:none"
       transform="translate(0,52.36218)" />
  </g>
  <g
     inkscape:groupmode="layer"
     id="layer7"
     inkscape:label="Banner"
     style="display:inline"
     sodipodi:insensitive="true">
    <g
       inkscape:groupmode="layer"
       id="layer9"
       inkscape:label="Background">
      <rect
         style="fill:#5f3817;fill-opacity:1;stroke:none;display:inline;filter:url(#filter4336)"
         id="rect3167"
         width="940"
         height="70"
         x="0"
         y="-30"
         ry="0" />
    </g>
    <g
       inkscape:groupmode="layer"
       id="layer10"
       inkscape:label="Stitches"
       style="opacity:0.5">
      <path
         sodipodi:nodetypes="cc"
         inkscape:connector-curvature="0"
         id="path4326"
         d="M 940,37 0,37"
         style="fill:none;stroke:#eeedde;stroke-width:1;stroke-linecap:round;stroke-linejoin:round;stroke-miterlimit:4;stroke-opacity:1;stroke-dasharray:2, 3;stroke-dashoffset:3.5;display:inline" />
    </g>
  </g>
  <g
     inkscape:groupmode="layer"
     id="layer3"
     inkscape:label="Tab"
     style="display:inline"
     sodipodi:insensitive="true">
    <g
       inkscape:groupmode="layer"
       id="layer8"
       inkscape:label="Background"
       style="display:inline">
      <path
         style="fill:#5f3817;fill-opacity:1;display:inline;filter:url(#filter4336)"
         d="m 450,40 c 5.52285,0 10,4.477153 10,10 l 0,40 c 0,27.61424 22.38576,50 50,50 27.61424,0 50,-22.38576 50,-50 l 0,-40 c 0,-5.522847 4.47715,-10 10,-10 l 0,-5 -120,0 z"
         id="rect3488"
         inkscape:connector-curvature="0"
         sodipodi:nodetypes="csssssc"
         inkscape:export-filename="/home/mike/Catalyst/icb/ICB/root/static/images/icb.png"
         inkscape:export-xdpi="90"
         inkscape:export-ydpi="90" />
    </g>
    <g
       inkscape:groupmode="layer"
       id="layer5"
       inkscape:label="Stitches"
       style="opacity:0.5;display:inline">
      <path
         style="fill:none;stroke:#eeedde;stroke-width:1;stroke-linecap:round;stroke-linejoin:round;stroke-miterlimit:4;stroke-opacity:1;stroke-dasharray:2, 3;stroke-dashoffset:4.2;display:inline"
         d="m 570,37 c -7.1797,0 -13,5.820298 -13,13 l 0,40 c 0,25.95738 -21.04262,47 -47,47 -25.95738,0 -47,-21.04262 -47,-47 l 0,-40 c 0,-7.179702 -5.8203,-13 -13,-13"
         id="path4186"
         inkscape:connector-curvature="0"
         sodipodi:nodetypes="cccsccc" />
    </g>
    <g
       inkscape:groupmode="layer"
       id="layer4"
       inkscape:label="Logo"
       style="display:inline">
      <g
         id="g5781"
         transform="matrix(1.4285714,0,0,1.4285714,-104.2857,-24.299107)"
         style="display:inline;filter:url(#filter4336)">
        <path
           inkscape:connector-curvature="0"
           id="path3049"
           d="m 430,50 c -16.56854,0 -30,13.431457 -30,29.999999 0,0.567337 0.0163,1.131184 0.0474,1.690752 l 0.84537,0 0.84809,0 7.51761,0 c 0.18987,2.358381 0.7734,4.605433 1.68398,6.6763 -0.74905,1.083488 -1.18813,2.397965 -1.18813,3.815029 0,3.71116 3.00849,6.719653 6.71965,6.719653 1.16706,0 2.26414,-0.297382 3.22028,-0.82099 3.03852,1.735907 6.55581,2.728507 10.30573,2.728507 3.74992,0 7.26721,-0.9926 10.30573,-2.728507 0.95613,0.523608 2.05321,0.82099 3.22028,0.82099 3.71116,0 6.71965,-3.008493 6.71965,-6.719653 0,-1.417064 -0.43909,-2.731541 -1.18813,-3.815029 0.91057,-2.070867 1.49411,-4.317919 1.68398,-6.6763 l 7.51761,0 0.95918,0 0.73428,0 C 459.98367,81.131183 460,80.567336 460,79.999999 460,63.431457 446.56854,50 430,50 z m 0,1.690751 c 15.63476,0 28.30925,12.674482 28.30925,28.309248 l -7.5,0 -1.69075,0 c 0,2.518037 -0.48758,4.923019 -1.37238,7.124729 -0.0255,0.06332 -0.0511,0.125335 -0.0772,0.188313 -0.0163,0.03939 -0.0322,0.07861 -0.0488,0.117865 -0.0278,0.06593 -0.0568,0.13225 -0.0854,0.197796 -0.0196,0.04498 -0.0397,0.08933 -0.0596,0.134122 -0.0263,0.05916 -0.0516,0.118635 -0.0786,0.177475 -0.0283,0.06196 -0.0577,0.124002 -0.0867,0.185603 -0.0387,0.0822 -0.0781,0.163658 -0.11787,0.245213 -0.0398,0.08156 -0.0797,0.162959 -0.12057,0.243859 0.0642,0.06381 0.12629,0.129251 0.18696,0.196441 0.0735,0.08136 0.14456,0.165923 0.2127,0.251987 0.0444,0.05617 0.088,0.112623 0.13005,0.170701 0.006,0.0079 0.0106,0.0165 0.0163,0.02439 0.002,0.0029 0.005,0.0053 0.007,0.0081 0.0429,0.06014 0.0844,0.120831 0.12464,0.182894 0.0217,0.03358 0.0427,0.06749 0.0637,0.101608 0.0196,0.03188 0.0394,0.06384 0.0583,0.09619 0.002,0.0031 0.004,0.0064 0.005,0.0095 0.003,0.0045 0.006,0.009 0.008,0.01355 0.0369,0.06406 0.0715,0.129288 0.10568,0.195086 0.0185,0.03568 0.0365,0.07221 0.0542,0.108382 0.0161,0.0329 0.032,0.0656 0.0474,0.0989 0.002,0.0042 0.005,0.008 0.007,0.01219 0.003,0.0068 0.006,0.01353 0.009,0.02032 0.0132,0.02914 0.0252,0.05863 0.0379,0.08806 0.26296,0.610182 0.40914,1.282214 0.40914,1.988801 0,2.777384 -2.25152,5.028901 -5.0289,5.028901 -0.52255,0 -1.02598,-0.07953 -1.49973,-0.227601 -0.005,-0.0014 -0.009,-0.0026 -0.0136,-0.0041 -0.0729,-0.02299 -0.14535,-0.04831 -0.21676,-0.07451 -0.0292,-0.01072 -0.0577,-0.02127 -0.0867,-0.03251 -0.009,-0.0033 -0.0172,-0.0061 -0.0258,-0.0095 -0.0198,-0.0078 -0.0399,-0.01631 -0.0596,-0.02439 -0.007,-0.0029 -0.0145,-0.0052 -0.0217,-0.0081 -0.0265,-0.011 -0.0523,-0.0238 -0.0786,-0.03523 -0.0118,-0.0051 -0.0235,-0.0097 -0.0352,-0.0149 -0.0242,-0.01073 -0.0479,-0.02142 -0.0718,-0.03251 -0.007,-0.0034 -0.0144,-0.0074 -0.0217,-0.01084 -0.0249,-0.0117 -0.0498,-0.02313 -0.0745,-0.03522 -0.0317,-0.01552 -0.0635,-0.03125 -0.0948,-0.04742 -0.0292,-0.01504 -0.0579,-0.03047 -0.0867,-0.04606 -0.002,-0.0012 -0.005,-0.0016 -0.007,-0.0027 -0.0245,-0.01331 -0.0489,-0.02693 -0.0731,-0.04064 -0.006,-0.0036 -0.0126,-0.0072 -0.019,-0.01084 -0.002,-9.97e-4 -0.004,-0.0017 -0.005,-0.0027 -0.0149,-0.0085 -0.0299,-0.01705 -0.0447,-0.02574 -0.0182,-0.01068 -0.0361,-0.02162 -0.0542,-0.03251 -0.008,-0.0047 -0.0153,-0.01017 -0.023,-0.0149 -0.0277,-0.01688 -0.0553,-0.03409 -0.0826,-0.05148 -0.0198,-0.01262 -0.04,-0.02502 -0.0596,-0.03793 -0.0106,-0.007 -0.0206,-0.0146 -0.0312,-0.02168 -0.006,-0.0042 -0.0127,-0.008 -0.019,-0.01219 -0.0295,-0.01991 -0.059,-0.04046 -0.0881,-0.06096 -0.0117,-0.0083 -0.0236,-0.01601 -0.0352,-0.02439 -0.0132,-0.0095 -0.0262,-0.01886 -0.0393,-0.02845 -0.0151,-0.01108 -0.0297,-0.02263 -0.0447,-0.03387 -0.0239,-0.01792 -0.0482,-0.03588 -0.0718,-0.05419 -0.002,-0.0018 -0.005,-0.0036 -0.007,-0.0054 -0.0293,-0.02291 -0.0579,-0.04557 -0.0867,-0.0691 -0.0932,0.06011 -0.18748,0.118938 -0.28179,0.177477 -0.094,0.05831 -0.18809,0.116679 -0.28315,0.173411 -3.4e-4,0 -0.001,0 -0.001,0 -0.0954,0.05691 -0.19075,0.112682 -0.28721,0.167991 -0.069,0.03953 -0.13913,0.07782 -0.20863,0.116506 -0.14574,0.0811 -0.29221,0.16102 -0.4403,0.238439 -0.0109,0.0057 -0.0216,0.01192 -0.0325,0.01761 -2.63717,1.372505 -5.63418,2.148707 -8.81277,2.148707 -3.17859,0 -6.1756,-0.776202 -8.81277,-2.148663 -0.0109,-0.0057 -0.0216,-0.0119 -0.0325,-0.01762 -0.0548,-0.02866 -0.1094,-0.0575 -0.16392,-0.0867 -0.0648,-0.03468 -0.12937,-0.06891 -0.19373,-0.104315 -5.4e-4,-4.33e-4 -8.2e-4,-0.0011 -10e-4,-0.0013 -0.0969,-0.05332 -0.19405,-0.107666 -0.28992,-0.162572 -0.0965,-0.05531 -0.19181,-0.111078 -0.28721,-0.167991 -3.5e-4,0 -10e-4,0 -10e-4,0 -0.0951,-0.05674 -0.18916,-0.115093 -0.28315,-0.173411 -0.0943,-0.05854 -0.18858,-0.117364 -0.28179,-0.177477 -0.0271,0.02211 -0.0538,0.04348 -0.0813,0.06503 -0.004,0.0032 -0.008,0.0063 -0.0122,0.0095 -0.0236,0.01831 -0.0479,0.03627 -0.0718,0.05419 -0.008,0.0058 -0.0153,0.01185 -0.023,0.01761 -0.0203,0.01506 -0.0404,0.02996 -0.061,0.04471 -0.0117,0.0084 -0.0235,0.0161 -0.0352,0.02439 -0.017,0.01201 -0.0343,0.02476 -0.0515,0.03658 -0.0153,0.01053 -0.0306,0.0208 -0.0461,0.03116 -0.0136,0.0091 -0.0269,0.01811 -0.0407,0.0271 -0.0196,0.01292 -0.0398,0.02531 -0.0596,0.03793 -0.01,0.0063 -0.0199,0.01274 -0.0298,0.01897 -0.0238,0.0149 -0.0478,0.03018 -0.0718,0.0447 -0.006,0.0036 -0.0117,0.0073 -0.0176,0.01084 -0.0283,0.01692 -0.0567,0.03375 -0.0854,0.05012 -0.0323,0.01847 -0.0648,0.03644 -0.0975,0.05419 -0.0184,0.01001 -0.037,0.02002 -0.0555,0.02981 -0.0125,0.0066 -0.0253,0.01248 -0.0379,0.01896 -0.0313,0.01617 -0.0631,0.0319 -0.0948,0.04742 -0.0108,0.0053 -0.0216,0.01103 -0.0325,0.01626 -0.0309,0.01483 -0.0623,0.02914 -0.0935,0.04335 -0.005,0.0023 -0.01,0.0045 -0.0149,0.0068 -0.0172,0.0078 -0.0341,0.01544 -0.0515,0.02303 -0.0195,0.0085 -0.0386,0.01745 -0.0583,0.02574 -0.0131,0.0055 -0.0262,0.01085 -0.0393,0.01626 -0.004,0.0019 -0.009,0.0036 -0.0136,0.0054 -0.0371,0.01521 -0.0749,0.02903 -0.11245,0.04335 -0.0201,0.0077 -0.0394,0.01564 -0.0596,0.02303 -0.0714,0.0262 -0.14388,0.05152 -0.21676,0.07451 -0.005,0.0014 -0.009,0.0026 -0.0136,0.0041 -0.47375,0.148057 -0.97718,0.227583 -1.49973,0.227583 -2.77739,0 -5.0289,-2.251517 -5.0289,-5.028901 0,-0.706587 0.14618,-1.378619 0.40914,-1.988801 0.0156,-0.03629 0.031,-0.07254 0.0474,-0.108381 0.002,-0.0042 0.005,-0.008 0.007,-0.01219 0.0153,-0.03312 0.0314,-0.06617 0.0474,-0.0989 0.0177,-0.03617 0.0357,-0.0727 0.0542,-0.108382 0.0342,-0.0658 0.0687,-0.131028 0.10568,-0.195086 0.003,-0.0045 0.005,-0.009 0.008,-0.01355 0.002,-0.0031 0.004,-0.0063 0.005,-0.0095 0.0189,-0.03235 0.0387,-0.0643 0.0583,-0.09619 0.0184,-0.02996 0.0365,-0.05988 0.0555,-0.08942 0.003,-0.0041 0.005,-0.0081 0.008,-0.01219 0.0194,-0.03001 0.0396,-0.05985 0.0596,-0.08942 0.002,-0.0035 0.004,-0.0073 0.007,-0.01084 0.019,-0.02793 0.0387,-0.05512 0.0582,-0.08264 0.002,-0.0029 0.005,-0.0053 0.007,-0.0081 0.006,-0.008 0.0105,-0.01645 0.0163,-0.02439 0.019,-0.02628 0.0387,-0.05268 0.0583,-0.07858 0.0223,-0.02956 0.0448,-0.05902 0.0677,-0.08806 10e-4,-0.0015 0.003,-0.0026 0.004,-0.0041 0.024,-0.0303 0.0485,-0.06104 0.0732,-0.09077 10e-4,-0.0017 0.003,-0.0037 0.004,-0.0054 0.0244,-0.02941 0.0494,-0.05787 0.0745,-0.08671 0.001,-0.0012 0.002,-0.0028 0.003,-0.0041 0.0191,-0.02186 0.0388,-0.0435 0.0583,-0.06503 0.007,-0.0081 0.0143,-0.01635 0.0217,-0.02438 0.0265,-0.02893 0.0528,-0.05706 0.0799,-0.08535 4.5e-4,-4.59e-4 9.2e-4,-8.97e-4 10e-4,-0.0014 0.0276,-0.02875 0.0557,-0.05726 0.084,-0.08535 -0.0409,-0.0809 -0.0808,-0.162303 -0.12057,-0.243858 -0.0249,-0.05104 -0.0501,-0.101799 -0.0745,-0.153089 -0.0146,-0.03059 -0.0289,-0.06145 -0.0433,-0.09212 -0.029,-0.0616 -0.0584,-0.123645 -0.0867,-0.185604 -0.0189,-0.04135 -0.0369,-0.08313 -0.0555,-0.124638 -0.0278,-0.06196 -0.0555,-0.12465 -0.0826,-0.186958 -0.0286,-0.06555 -0.0575,-0.131871 -0.0854,-0.197797 -0.003,-0.0076 -0.006,-0.01541 -0.009,-0.02303 -0.004,-0.01047 -0.009,-0.02068 -0.0136,-0.03116 -0.009,-0.02121 -0.0169,-0.04242 -0.0257,-0.06368 -0.026,-0.0627 -0.0519,-0.125267 -0.0772,-0.188312 -0.88555,-2.201754 -1.37313,-4.606736 -1.37313,-7.124773 l -0.52023,0 -8.67052,0 c 0,-15.634766 12.67448,-28.309248 28.30925,-28.309248 z"
           style="fill:#eeedde;fill-opacity:1;fill-rule:evenodd;stroke:none;display:inline;enable-background:new" />
        <path
           inkscape:connector-curvature="0"
           id="path3886"
           d="m 412.57225,79.999999 c 0,2.737735 0.63221,5.327536 1.75714,7.632767 0.65061,-0.307263 1.37735,-0.479588 2.1446,-0.479588 2.77738,0 5.0289,2.251516 5.0289,5.028902 0,0.954306 -0.26588,1.846439 -0.72751,2.606575 -2.2e-4,4.33e-4 2.2e-4,10e-4 0,0.0013 2.6751,1.671897 5.83757,2.637745 9.22462,2.637745 3.38705,0 6.54951,-0.965865 9.22462,-2.637737 -2.2e-4,-4.33e-4 2.2e-4,-9.97e-4 0,-0.0013 -0.46163,-0.760154 -0.72751,-1.652278 -0.72751,-2.606584 0,-2.777386 2.25151,-5.028902 5.0289,-5.028902 0.76725,0 1.49399,0.172325 2.1446,0.479588 1.1249,-2.305231 1.75713,-4.895032 1.75713,-7.632767 l -34.85549,0 z m 6.85784,1.353414 c 2.24787,-0.01491 4.17676,0.26418 4.17676,0.26418 1.6448,0.252252 2.77347,1.789532 2.52122,3.434339 -0.25225,1.644807 -1.78953,2.773476 -3.43434,2.521225 -0.34755,-0.0533 -0.68335,-0.166985 -0.99169,-0.335983 0,0 -1.17886,-0.630758 -2.5849,-1.506503 -1.40603,-0.875745 -3.03025,-1.974303 -3.99521,-3.022489 l -0.60152,-0.652999 0.85622,-0.237084 c 1.23927,-0.341897 2.70474,-0.455737 4.05346,-0.464686 z m 20.72255,0 c 0.1376,-0.0012 0.27677,-9.32e-4 0.41726,0 1.34873,0.0089 2.8142,0.122789 4.05347,0.464686 l 0.85622,0.237084 -0.60152,0.652999 c -0.96496,1.048186 -2.58918,2.146744 -3.99521,3.022489 -1.40604,0.875745 -2.5849,1.506503 -2.5849,1.506503 -0.30834,0.168998 -0.64414,0.282682 -0.99169,0.335983 -1.64481,0.252251 -3.18209,-0.876418 -3.43434,-2.521225 -0.25225,-1.644807 0.87642,-3.182087 2.52122,-3.434339 0,0 1.69539,-0.245806 3.75949,-0.26418 z m -20.64939,1.108201 c -0.95148,0.0024 -1.95389,0.05332 -2.85721,0.197796 0.85208,0.721491 2.01125,1.508021 3.04417,2.151373 1.37351,0.855484 2.53206,1.476698 2.53206,1.476698 0.27525,0.151227 0.59179,0.237084 0.92802,0.237084 1.06546,0 1.92919,-0.863728 1.92919,-1.92919 0,-0.966037 -0.70989,-1.766584 -1.63656,-1.907515 0,0 -1.84641,-0.231499 -3.93967,-0.226246 z m 20.9935,0 c -2.09326,-0.0053 -3.93967,0.226246 -3.93967,0.226246 -0.92667,0.140931 -1.63656,0.941478 -1.63656,1.907515 0,1.065462 0.86373,1.92919 1.92919,1.92919 0.33623,0 0.65277,-0.08586 0.92802,-0.237084 0,0 1.15855,-0.621214 2.53206,-1.476698 1.03292,-0.643352 2.1921,-1.429882 3.04416,-2.151373 -0.90331,-0.144472 -1.90572,-0.195409 -2.8572,-0.197796 z m -17.34646,0.984917 c 0.63449,0 1.14884,0.514355 1.14884,1.148844 0,0.634489 -0.51435,1.148844 -1.14884,1.148844 -0.63449,0 -1.14885,-0.514355 -1.14885,-1.148844 0,-0.634489 0.51436,-1.148844 1.14885,-1.148844 z m 13.69942,0 c 0.63449,0 1.14884,0.514355 1.14884,1.148844 0,0.634489 -0.51435,1.148844 -1.14884,1.148844 -0.63449,0 -1.14884,-0.514355 -1.14884,-1.148844 0,-0.634489 0.51435,-1.148844 1.14884,-1.148844 z M 430,84.031791 l 1.79913,2.882948 1.79913,2.882948 -3.59826,0 -3.59827,0 1.79914,-2.882948 L 430,84.031791 z m -5.58436,7.173501 a 1.9510621,1.9510621 0 0 1 0.75732,0.165281 c 3.08532,1.309642 6.56876,1.309642 9.65408,0 a 1.9513762,1.9513762 0 1 1 1.52412,3.592845 c -4.05807,1.722559 -8.64425,1.722572 -12.70232,0 a 1.9510621,1.9510621 0 0 1 0.7668,-3.758126 z m 9.29914,2.259756 a 0.34685548,0.34685548 0 0 0 -0.10297,0.01626 c -2.36647,0.634088 -4.85715,0.634084 -7.22362,0 a 0.34685548,0.34685548 0 0 0 -0.10297,-0.01355 0.34685548,0.34685548 0 0 0 -0.0759,0.682804 c 2.48405,0.665609 5.09723,0.665609 7.58128,0 a 0.34685548,0.34685548 0 0 0 -0.0664,-0.685509 0.34685548,0.34685548 0 0 0 -0.009,0 z"
           style="fill:#eeedde;fill-opacity:1;fill-rule:evenodd;stroke:none;display:inline;enable-background:new" />
        <path
           inkscape:connector-curvature="0"
           id="path3024"
           d="m 430,53.381503 c -14.13314,0 -25.69366,11.014428 -26.56566,24.927745 l 3.53188,0 3.98979,0 38.08797,0 2.13512,0 5.38656,0 C 455.6937,64.395931 444.13314,53.381503 430,53.381503 z m -3.37879,0.830473 c 1.17408,0.01356 2.28274,0.71731 2.7556,1.87229 0.63048,1.539972 -0.10743,3.299699 -1.6474,3.930185 -1.53997,0.630481 -3.29971,-0.107432 -3.93019,-1.647399 l -0.68145,-1.665011 -1.07704,0.4403 c -0.62041,0.254016 -1.32972,-0.04206 -1.58372,-0.662482 l 1.12446,-0.460621 3.86515,-1.58237 c 0.38499,-0.157621 0.78322,-0.229413 1.17459,-0.224892 z m 6.7061,0.162572 c 0.0435,-0.0011 0.0876,-7.76e-4 0.13141,0 0.20018,0.0036 0.40258,0.02785 0.60559,0.07316 1.62406,0.362496 2.64664,1.972836 2.28414,3.596911 l -0.39153,1.75578 1.13529,0.253342 c 0.65431,0.146042 1.06729,0.795306 0.92125,1.449602 l -1.18543,-0.264179 -4.0765,-0.910405 c -1.62407,-0.362496 -2.64663,-1.972831 -2.28414,-3.596911 0.30728,-1.376651 1.51105,-2.322206 2.85992,-2.357298 z m -6.71965,1.051301 c -0.23369,-0.0027 -0.47188,0.04 -0.70177,0.134122 l -1.66501,0.682803 0.68145,1.665011 c 0.37647,0.919546 1.42826,1.358682 2.34781,0.982208 0.91955,-0.37648 1.35868,-1.426912 0.98221,-2.34646 -0.28236,-0.689663 -0.94362,-1.109586 -1.64469,-1.117684 z m 6.75217,0.162572 c -0.80541,0.02096 -1.52354,0.585575 -1.70701,1.407605 -0.21646,0.969769 0.39448,1.932205 1.36425,2.148663 l 1.75578,0.391528 0.39153,-1.75578 c 0.21646,-0.969776 -0.39448,-1.932211 -1.36425,-2.148663 -0.12123,-0.02706 -0.2422,-0.04123 -0.36173,-0.04335 -0.0261,-4.64e-4 -0.0526,-6.76e-4 -0.0786,0 z m 5.09799,0.463331 1.14613,0.401012 3.94374,1.37509 c 1.57113,0.548209 2.40018,2.266919 1.85197,3.83806 -0.54824,1.571141 -2.26557,2.400178 -3.83671,1.851969 -1.57114,-0.548212 -2.40018,-2.266923 -1.85197,-3.83806 l 0.59204,-1.697526 -1.09872,-0.383399 c -0.63298,-0.220855 -0.96734,-0.914168 -0.74648,-1.547146 z m -20.89189,1.747652 c 1.06884,-0.0076 2.10893,0.555244 2.66212,1.556629 l 0.86976,1.574241 1.01879,-0.562229 c 0.58682,-0.324175 1.32458,-0.111284 1.64875,0.475524 l -1.06214,0.586615 -3.65516,2.01996 c -1.45656,0.804652 -3.29081,0.276558 -4.09547,-1.180003 -0.80464,-1.456555 -0.2752,-3.289462 1.18136,-4.094112 0.45517,-0.251452 0.94616,-0.373187 1.43199,-0.376625 z m 23.88322,0.58255 -0.59339,1.69888 c -0.32735,0.938159 0.16869,1.963564 1.10685,2.290914 0.93816,0.327347 1.96356,-0.167332 2.29091,-1.105491 0.32735,-0.938162 -0.16732,-1.96492 -1.10549,-2.292269 l -1.69888,-0.592034 z m -23.87238,0.631322 c -0.2901,0.0021 -0.58442,0.07474 -0.85621,0.224892 -0.86975,0.480476 -1.18496,1.574264 -0.70448,2.444003 0.48047,0.86974 1.57425,1.186306 2.444,0.705834 l 1.5756,-0.869761 -0.86977,-1.575596 C 418.83559,59.344696 418.215,59.00876 417.57677,59.013276 z M 430,60.881503 c 9.70649,0 17.72216,7.233587 18.95321,16.604045 l -37.90643,0 C 412.27783,68.11509 420.2935,60.881503 430,60.881503 z m -17.59709,1.31548 c 0.43863,0.0039 0.88349,0.103354 1.30329,0.310242 1.49262,0.735599 2.10662,2.54188 1.37102,4.034501 -0.7356,1.492618 -2.54188,2.106624 -4.0345,1.371026 l -1.61353,-0.795249 -0.51481,1.044527 c -0.29635,0.601348 -1.02438,0.847749 -1.62572,0.551391 l 0.53648,-1.089234 1.84655,-3.745936 c 0.52871,-1.072819 1.61028,-1.691211 2.73122,-1.681268 z m 35.07767,0.104317 c 0.0392,-9.32e-4 0.0786,-5.98e-4 0.11787,0 0.91733,0.01399 1.81698,0.444871 2.39658,1.245033 0.97614,1.347634 0.67567,3.231751 -0.67196,4.207911 l -1.45773,1.055365 0.6828,0.942919 c 0.39325,0.542934 0.27196,1.301546 -0.27095,1.694816 l -0.71126,-0.983562 -2.45078,-3.381503 c -0.97613,-1.347639 -0.67432,-3.231745 0.67332,-4.207912 0.51326,-0.371778 1.10318,-0.559058 1.69211,-0.573067 z m -35.15083,1.109556 c -0.64672,0.01687 -1.26298,0.383298 -1.56882,1.003883 l -0.79525,1.61353 1.61353,0.795249 c 0.89127,0.439239 1.96953,0.07299 2.40878,-0.81828 0.43924,-0.89128 0.073,-1.969536 -0.81828,-2.408779 -0.25067,-0.123537 -0.51573,-0.18328 -0.77764,-0.185603 -0.0209,-1.74e-4 -0.0415,-5.42e-4 -0.0623,0 z m 35.18199,0.104317 c -0.35184,0.0084 -0.70555,0.120758 -1.01201,0.342757 -0.80472,0.582888 -0.9839,1.707034 -0.40101,2.511741 l 1.05536,1.457731 1.45638,-1.055365 c 0.80474,-0.58289 0.98526,-1.70839 0.40236,-2.513096 -0.34608,-0.477794 -0.88287,-0.735417 -1.43063,-0.743768 -0.0234,-3.47e-4 -0.047,-5.64e-4 -0.0705,0 z m 4.71053,4.144238 0.59339,1.059429 2.04164,3.642973 c 0.81346,1.451652 0.29739,3.288783 -1.15427,4.10224 -1.45165,0.81346 -3.28877,0.296037 -4.10224,-1.155618 -0.81345,-1.451654 -0.29603,-3.288782 1.15562,-4.10224 l 1.57018,-0.879245 -0.569,-1.014721 c -0.32774,-0.584837 -0.12017,-1.325095 0.46468,-1.652818 z m -39.98193,2.060603 c 0.13858,-0.0013 0.2791,0.0213 0.41726,0.07045 l -0.40643,1.143425 -1.39947,3.934248 c -0.55772,1.567793 -2.2811,2.386658 -3.8489,1.828938 -1.56779,-0.557722 -2.38666,-2.279751 -1.82894,-3.847543 0.55772,-1.567786 2.28111,-2.386661 3.8489,-1.828938 l 1.69482,0.602872 0.39017,-1.097363 c 0.17554,-0.493459 0.63764,-0.801527 1.13259,-0.806087 z m 40.67964,1.666365 -1.57018,0.879245 c -0.86682,0.485734 -1.17531,1.582607 -0.68958,2.449422 0.48574,0.866817 1.58126,1.175308 2.44807,0.689578 0.86682,-0.485733 1.17666,-1.582606 0.69093,-2.449422 l -0.87924,-1.568823 z M 407.99585,72.0597 c -0.7336,0.0068 -1.41839,0.46488 -1.67856,1.19626 -0.33303,0.936166 0.15578,1.964665 1.09194,2.297688 0.93616,0.333024 1.96601,-0.155782 2.29904,-1.091943 l 0.60287,-1.694816 -1.69481,-0.602872 c -0.20479,-0.07285 -0.41508,-0.106209 -0.62048,-0.104317 z"
           style="fill:#eeedde;fill-opacity:1;fill-rule:evenodd;stroke:none;display:inline;enable-background:new" />
        <path
           d="m 460,80 a 30,30 0 1 1 -60,0 30,30 0 1 1 60,0 z"
           sodipodi:ry="30"
           sodipodi:rx="30"
           sodipodi:cy="80"
           sodipodi:cx="430"
           id="path5011"
           style="fill:#ffffff;fill-opacity:0;fill-rule:evenodd;stroke:none"
           sodipodi:type="arc" />
      </g>
    </g>
  </g>
  <g
     inkscape:groupmode="layer"
     id="layer6"
     inkscape:label="Inca Cafè Bar"
     style="display:none"
     sodipodi:insensitive="true">
    <text
       xml:space="preserve"
       style="font-size:18px;font-style:normal;font-variant:normal;font-weight:normal;font-stretch:normal;text-align:start;line-height:110.00000238%;letter-spacing:0px;word-spacing:0px;text-anchor:start;fill:#eeedde;fill-opacity:1;stroke:none;filter:url(#filter4336);font-family:Gill Sans MT Ultra Bold;-inkscape-font-specification:Gill Sans MT Ultra Bold"
       x="10"
       y="25"
       id="text6394"
       sodipodi:linespacing="110%"><tspan
         sodipodi:role="line"
         x="10"
         y="25"
         style="font-size:18px;text-align:start;line-height:110.00000238%;text-anchor:start"
         id="tspan6438">inca cafè bar</tspan></text>
    <flowRoot
       xml:space="preserve"
       id="flowRoot3218"
       style="font-size:40px;font-style:normal;font-variant:normal;font-weight:normal;font-stretch:normal;text-align:center;line-height:125%;letter-spacing:0px;word-spacing:0px;text-anchor:middle;fill:#000000;fill-opacity:1;stroke:none;font-family:DejaVu Serif;-inkscape-font-specification:DejaVu Serif"><flowRegion
         id="flowRegion3220"><rect
           id="rect3222"
           width="15"
           height="42"
           x="-130"
           y="55"
           style="font-size:40px" /></flowRegion><flowPara
         id="flowPara3224" /></flowRoot>  </g>
</svg>
