<?xml version="1.0" encoding="UTF-8" standalone="no"?>
<!-- Creator: CorelDRAW X6 -->

<svg
   xmlns:dc="http://purl.org/dc/elements/1.1/"
   xmlns:cc="http://creativecommons.org/ns#"
   xmlns:rdf="http://www.w3.org/1999/02/22-rdf-syntax-ns#"
   xmlns:svg="http://www.w3.org/2000/svg"
   xmlns="http://www.w3.org/2000/svg"
   xmlns:sodipodi="http://sodipodi.sourceforge.net/DTD/sodipodi-0.dtd"
   xmlns:inkscape="http://www.inkscape.org/namespaces/inkscape"
   xml:space="preserve"
   width="24.003819"
   height="72"
   version="1.1"
   style="fill-rule:evenodd"
   viewBox="0 0 643.39792 1929.9696"
   id="svg2"
   inkscape:version="0.48.2 r9819"
   sodipodi:docname="media_icons.svg"
   inkscape:export-filename="/home/mike/Catalyst/icb/ICB/root/static/img/media-icons.png"
   inkscape:export-xdpi="90"
   inkscape:export-ydpi="90"><metadata
   id="metadata14"><rdf:RDF><cc:Work
       rdf:about=""><dc:format>image/svg+xml</dc:format><dc:type
         rdf:resource="http://purl.org/dc/dcmitype/StillImage" /><dc:title></dc:title></cc:Work></rdf:RDF></metadata><sodipodi:namedview
   pagecolor="#ffffff"
   bordercolor="#666666"
   borderopacity="1"
   objecttolerance="10"
   gridtolerance="10"
   guidetolerance="10"
   inkscape:pageopacity="0"
   inkscape:pageshadow="2"
   inkscape:window-width="1600"
   inkscape:window-height="817"
   id="namedview12"
   showgrid="true"
   inkscape:zoom="8.9027782"
   inkscape:cx="12.00191"
   inkscape:cy="35.999998"
   inkscape:window-x="0"
   inkscape:window-y="33"
   inkscape:window-maximized="1"
   inkscape:current-layer="layer3"
   inkscape:snap-center="false"
   showborder="false"
   inkscape:showpageshadow="false"
   inkscape:snap-object-midpoints="false"
   inkscape:snap-bbox="true"
   inkscape:snap-nodes="false"
   inkscape:snap-bbox-midpoints="true"
   fit-margin-top="0"
   fit-margin-left="0"
   fit-margin-right="0"
   fit-margin-bottom="0"><inkscape:grid
     type="xygrid"
     id="grid3010"
     empspacing="24"
     visible="true"
     enabled="true"
     snapvisiblegridlinesonly="false"
     dotted="false" /></sodipodi:namedview>
 <defs
   id="defs4">
  <style
   type="text/css"
   id="style6">
   
    .fil0 {fill:#41ABE1}
   
  </style>
 <filter
   id="filter3815"
   inkscape:label="Emboss"
   inkscape:menu-tooltip="Emboss effect : Colors of the original images are preserved or modified by Blend"
   inkscape:menu="Bumps"
   height="1"
   width="1"
   y="0"
   x="0"
   color-interpolation-filters="sRGB"><feColorMatrix
     id="feColorMatrix3817"
     result="result2"
     type="luminanceToAlpha" /><feDiffuseLighting
     id="feDiffuseLighting3819"
     diffuseConstant="0.60000002"
     result="result1"
     surfaceScale="-10"><feDistantLight
       id="feDistantLight3821"
       azimuth="225"
       elevation="35" /></feDiffuseLighting><feComposite
     id="feComposite3823"
     in2="SourceGraphic"
     result="result3"
     k3="0.5"
     k1="1.5"
     in="result1"
     operator="arithmetic"
     k2="0"
     k4="0" /><feComposite
     id="feComposite3825"
     in2="result3"
     result="result5"
     operator="in"
     in="result3" /><feBlend
     id="feBlend3827"
     in2="result1"
     result="result6"
     mode="normal"
     in="result5" /><feComposite
     id="feComposite3829"
     in2="result6"
     result="result7"
     operator="arithmetic"
     k2="1"
     k1="0"
     k3="0"
     k4="0" /><feComposite
     id="feComposite3831"
     in2="SourceGraphic"
     in="result7"
     operator="in" /></filter></defs>
 
<g
   inkscape:groupmode="layer"
   id="layer3"
   inkscape:label="Icon"
   transform="translate(-1286.544,-3516.0305)"><g
     id="icon-twitter"
     inkscape:label="icon-twitter"
     transform="translate(1286.7488,-643.32314)"><rect
       y="4802.6768"
       x="-0.143847"
       height="643.32318"
       width="643.32318"
       id="rect3012"
       style="fill:#a5b8a6;fill-opacity:1;fill-rule:evenodd;stroke:none;display:inline" /><g
       transform="translate(40.207706,-36.904668)"
       id="g4334"><g
         id="Livello_x0020_1"
         transform="matrix(0.07997951,0,0,0.07997951,0.01611495,4930.0962)"
         style="fill:#88a28a;fill-opacity:1;fill-rule:evenodd;display:inline">
  <metadata
   id="CorelCorpID_0Corel-Layer" />
  <path
   class="fil0"
   d="M 6701,645 C 6454,754 6189,828 5911,861 6195,691 6413,421 6515,100 6249,258 5955,372 5642,434 5391,167 5034,0 4638,0 3879,0 3263,616 3263,1375 c 0,108 12,213 36,313 C 2156,1631 1143,1083 465,251 347,454 279,690 279,942 c 0,477 243,898 612,1144 -225,-7 -437,-69 -623,-172 0,6 0,11 0,17 0,666 474,1222 1103,1348 -115,31 -237,48 -362,48 -89,0 -175,-9 -259,-25 175,546 683,944 1284,955 -471,369 -1063,589 -1708,589 -111,0 -220,-7 -328,-19 608,390 1331,618 2108,618 2529,0 3912,-2095 3912,-3912 0,-60 -1,-119 -4,-178 269,-194 502,-436 686,-712 z"
   id="path10"
   inkscape:connector-curvature="0"
   style="fill:#88a28a;fill-opacity:1" />
 </g><g
         style="fill:#eeedda;fill-opacity:1;fill-rule:evenodd"
         transform="matrix(0.07997951,0,0,0.07997951,26.821223,4956.9014)"
         id="g3782">
  <metadata
   id="metadata3784" />
  <path
   style="fill:#eeedda;fill-opacity:1"
   inkscape:connector-curvature="0"
   id="path3786"
   d="M 6701,645 C 6454,754 6189,828 5911,861 6195,691 6413,421 6515,100 6249,258 5955,372 5642,434 5391,167 5034,0 4638,0 3879,0 3263,616 3263,1375 c 0,108 12,213 36,313 C 2156,1631 1143,1083 465,251 347,454 279,690 279,942 c 0,477 243,898 612,1144 -225,-7 -437,-69 -623,-172 0,6 0,11 0,17 0,666 474,1222 1103,1348 -115,31 -237,48 -362,48 -89,0 -175,-9 -259,-25 175,546 683,944 1284,955 -471,369 -1063,589 -1708,589 -111,0 -220,-7 -328,-19 608,390 1331,618 2108,618 2529,0 3912,-2095 3912,-3912 0,-60 -1,-119 -4,-178 269,-194 502,-436 686,-712 z"
   class="fil0" />
 </g></g></g><g
     id="icon-facebook"
     inkscape:label="icon-facebook"
     transform="translate(643.42563,-1286.6463)"><rect
       style="fill:#a5b8a6;fill-opacity:1;fill-rule:evenodd;stroke:none;display:inline"
       id="rect3858"
       width="643.32318"
       height="643.32318"
       x="643.17932"
       y="4802.6768" /><g
       transform="matrix(0.87500005,0,0,0.87500005,264.65912,640.54198)"
       id="g4321"><g
         style="fill:#88a28a;fill-opacity:1"
         id="g4317"
         transform="matrix(6.0158667,0,0,6.0158667,272.45156,4715.2663)"><path
           id="path4319"
           d="M 93.376,117.012 H 72.203 V 65.767 H 61.625 V 48.107 H 72.203 V 37.504 c 0,-14.407 5.973,-22.974 22.943,-22.974 h 14.128 v 17.662 h -8.831 c -6.606,0 -7.043,2.468 -7.043,7.074 l -0.024,8.839 h 15.998 l -1.872,17.66 H 93.376 v 51.247 z"
           inkscape:connector-curvature="0"
           style="fill:#88a28a;fill-opacity:1" /></g><g
         transform="matrix(6.0158667,0,0,6.0158667,299.25669,4742.0714)"
         id="Layer_3"
         style="fill:#eeedda;fill-opacity:1"><path
           style="fill:#eeedda;fill-opacity:1"
           inkscape:connector-curvature="0"
           d="M 93.376,117.012 H 72.203 V 65.767 H 61.625 V 48.107 H 72.203 V 37.504 c 0,-14.407 5.973,-22.974 22.943,-22.974 h 14.128 v 17.662 h -8.831 c -6.606,0 -7.043,2.468 -7.043,7.074 l -0.024,8.839 h 15.998 l -1.872,17.66 H 93.376 v 51.247 z"
           id="path4288" /></g></g></g><g
     id="icon-linkedin"
     inkscape:label="icon-linkedin"><rect
       style="fill:#a5b8a6;fill-opacity:1;fill-rule:evenodd;stroke:none;display:inline"
       id="rect3858-0"
       width="643.32318"
       height="643.32318"
       x="1286.5026"
       y="4802.6768" /><g
       id="g3341"
       transform="matrix(3.4805619,0,0,-3.4805619,1059.9924,5025.737)"
       style="fill:#88a28a;fill-opacity:1;fill-rule:evenodd"><path
         style="fill:#88a28a;fill-opacity:1"
         id="path3343"
         inkscape:connector-curvature="0"
         d="M 109.495,-101.774 V 2.533 H 74.828 v -104.307 h 34.667 z M 92.168,16.775 c 12.081,0 19.612,8.01 19.612,18.021 -0.224,10.233 -7.531,18.021 -19.385,18.021 -11.864,0 -19.615,-7.788 -19.615,-18.021 0,-10.011 7.521,-18.021 19.159,-18.021 h 0.229 l 0,0 z" /><path
         style="fill:#88a28a;fill-opacity:1"
         id="path3345"
         inkscape:connector-curvature="0"
         d="m 128.681,-101.774 h 34.673 v 58.249 c 0,3.119 0.226,6.235 1.143,8.462 2.5,6.232 8.209,12.681 17.784,12.681 12.547,0 17.562,-9.568 17.562,-23.588 v -55.804 h 34.666 v 59.81 c 0,32.039 -17.1,46.946 -39.913,46.946 -18.701,0 -26.915,-10.45 -31.476,-17.571 h 0.234 V 2.533 h -34.673 c 0.46,-9.786 0,-104.307 0,-104.307 l 0,0 z" /></g><g
       style="fill:#eeedda;fill-opacity:1;fill-rule:evenodd"
       transform="matrix(3.4805619,0,0,-3.4805619,1086.7975,5052.5421)"
       id="g3019"><path
         d="M 109.495,-101.774 V 2.533 H 74.828 v -104.307 h 34.667 z M 92.168,16.775 c 12.081,0 19.612,8.01 19.612,18.021 -0.224,10.233 -7.531,18.021 -19.385,18.021 -11.864,0 -19.615,-7.788 -19.615,-18.021 0,-10.011 7.521,-18.021 19.159,-18.021 h 0.229 l 0,0 z"
         inkscape:connector-curvature="0"
         id="path28_1_"
         style="fill:#eeedda;fill-opacity:1" /><path
         d="m 128.681,-101.774 h 34.673 v 58.249 c 0,3.119 0.226,6.235 1.143,8.462 2.5,6.232 8.209,12.681 17.784,12.681 12.547,0 17.562,-9.568 17.562,-23.588 v -55.804 h 34.666 v 59.81 c 0,32.039 -17.1,46.946 -39.913,46.946 -18.701,0 -26.915,-10.45 -31.476,-17.571 h 0.234 V 2.533 h -34.673 c 0.46,-9.786 0,-104.307 0,-104.307 l 0,0 z"
         inkscape:connector-curvature="0"
         id="path30_1_"
         style="fill:#eeedda;fill-opacity:1" /></g></g></g></svg>